<svg class="icon" viewBox="0 0 1024 1024" xmlns="http://www.w3.org/2000/svg" width="81" height="81"><path d="M796.444 682.667v113.777H227.556V682.667a28.444 28.444 0 0 0-56.89 0v113.777a56.889 56.889 0 0 0 56.89 56.89h568.888a56.889 56.889 0 0 0 56.89-56.89V682.667a28.444 28.444 0 1 0-56.89 0z"/><path d="M512 170.667q28.444 0 28.444 28.444v455.111q0 28.445-28.444 28.445t-28.444-28.445v-455.11q0-28.445 28.444-28.445z"/><path d="M511.204 729.77a28.33 28.33 0 0 1-20.14-8.305l-160.88-160.882a28.444 28.444 0 0 1 40.22-40.277l140.8 140.8 140.743-140.8a28.444 28.444 0 1 1 40.277 40.277L531.285 721.465a28.33 28.33 0 0 1-20.081 8.306z"/></svg>