<svg class="icon" viewBox="0 0 1024 1024" xmlns="http://www.w3.org/2000/svg" width="200" height="200"><path d="M860.834 30.026a30.208 30.208 0 0 1 40.575-2.24l2.432 2.24 79.786 80.853c10.688 10.88 11.627 27.989 2.155 39.935l-2.176 2.475-71.68 72.682-43.007-42.346 50.773-51.541-37.333-37.888-52.416 53.162-43.007-42.346 73.898-74.986zM522.619 360.05l44.671 40.576-219.518 241.384-44.671-40.575 219.518-241.385zM117.097 797.656l42.283 43.093-54.336 53.226 37.333 36.565 52.117-51.115 42.282 43.093-73.258 71.808a30.208 30.208 0 0 1-39.829 2.176l-2.432-2.176-80.426-78.784a30.165 30.165 0 0 1-2.282-40.618l2.261-2.474 76.287-74.816v.022zm493.329-349.842l44.693 40.597L435.6 729.795l-44.693-40.597 219.518-241.384z"/><path d="M45.162 620.505l-6.528 6.614c-37.226 38.122-37.226 99.945 0 138.025l224.894 229.992a95.572 95.572 0 0 0 136.894 0l6.486-6.656c37.226-38.08 37.226-99.924 0-137.982L182.014 620.505a95.572 95.572 0 0 0-136.852 0zm93.674 42.155L363.73 892.695c14.293 15.018 14.293 38.613 0 53.631l-6.507 6.613a35.157 35.157 0 0 1-50.496 0L81.77 722.99a38.89 38.89 0 0 1 0-53.652l6.528-6.613a35.2 35.2 0 0 1 50.516-.043h.022zM444.902 51.466l-6.528 6.635c-37.205 38.1-37.226 99.924 0 138.003l381.65 390.204a95.615 95.615 0 0 0 136.873 0l6.528-6.655c37.183-38.037 37.183-99.903-.043-137.962L581.797 51.423a95.572 95.572 0 0 0-136.895 0zm93.716 42.154l381.564 390.226a38.826 38.826 0 0 1 0 53.652l-6.506 6.656a35.221 35.221 0 0 1-50.474-.042L481.53 153.908a38.89 38.89 0 0 1-.043-53.61l6.528-6.657a35.2 35.2 0 0 1 50.56-.02z"/><path d="M623.695 28.853l-6.55 6.677c-37.204 38.101-37.204 99.903 0 138.004L842.04 403.505a95.615 95.615 0 0 0 136.916 0l6.507-6.656c37.205-38.1 37.205-99.924 0-138.004L760.589 28.853a95.615 95.615 0 0 0-136.894 0zM717.39 71.05l224.872 229.97c14.293 15.04 14.293 38.614 0 53.653l-6.528 6.635a35.2 35.2 0 0 1-50.516 0l-224.894-229.95a38.912 38.912 0 0 1 0-53.631l6.528-6.635a35.221 35.221 0 0 1 50.56-.02v-.022zM65.237 444.849l-6.336 6.613c-36.203 37.695-36.203 98.772 0 136.532l370.236 386.13a92.8 92.8 0 0 0 134.526 0l6.336-6.657c36.16-37.653 36.16-98.75-.064-136.489l-370.214-386.13a92.756 92.756 0 0 0-134.484 0zm90.879 41.748l370.257 386.13c13.803 14.4 13.803 38.613 0 53.055l-6.357 6.614a32.405 32.405 0 0 1-47.274-.022L102.548 546.266c-13.845-14.4-13.845-38.655-.021-53.013l6.314-6.613a32.405 32.405 0 0 1 47.36 0l-.064-.043z"/></svg>